HIERARCHY
ROOT Hips
{
	OFFSET 0.000000 0.000000 0.000000 
	CHANNELS 6 Xposition Yposition Zposition Yrotation Zrotation Xrotation 
	JOINT Lumbar
	{
		OFFSET 0.000000 0.000000 0.000000 
		CHANNELS 3 Zrotation Xrotation Yrotation
		JOINT Neck
		{
			OFFSET 0.000000 0.445665 0.000000 
			CHANNELS 3 Zrotation Xrotation Yrotation
			End Site
			{
				OFFSET 0.000000 0.227535 0.000000 
			}
		}
		JOINT RightShoulder
		{
			OFFSET 0.019635 0.377685 0.194865 
			CHANNELS 3 Zrotation Xrotation Yrotation
			JOINT RightElbow
			{
				OFFSET 0.000000 -0.243375 0.000000 
				CHANNELS 2 Zrotation Yrotation
				JOINT RightWrist
				{
					OFFSET 0.000000 -0.264825 0.000000 
					CHANNELS 2 Zrotation Xrotation
					End Site
					{
						OFFSET 0.006600 -0.176220 0.000990 
					}
				}
			}
		}
		JOINT LeftShoulder
		{
			OFFSET 0.019635 0.377685 -0.194865 
			CHANNELS 3 Zrotation Xrotation Yrotation
			JOINT LeftElbow
			{
				OFFSET 0.000000 -0.243375 0.000000 
				CHANNELS 2 Zrotation Yrotation
				JOINT LeftWrist
				{
					OFFSET 0.000000 -0.264825 0.000000 
					CHANNELS 2 Zrotation Xrotation
					End Site
					{
						OFFSET 0.006600 -0.176220 -0.000990 
					}
				}
			}
		}
	}
	JOINT RightHip
	{
		OFFSET 0.052140 -0.069960 0.075570 
		CHANNELS 3 Zrotation Xrotation Yrotation
		JOINT RightKnee
		{
			OFFSET 0.000000 -0.402270 0.000000 
			CHANNELS 1 Zrotation
			JOINT RightAnkle
			{
				OFFSET 0.000000 -0.404085 0.000000 
				CHANNELS 3 Zrotation Xrotation Yrotation
				End Site
				{
					OFFSET 0.204105 -0.089430 0.008415 
				}
			}
		}
	}
	JOINT LeftHip
	{
		OFFSET 0.052140 -0.069960 -0.075570 
		CHANNELS 3 Zrotation Xrotation Yrotation
		JOINT LeftKnee
		{
			OFFSET 0.000000 -0.402270 0.000000 
			CHANNELS 1 Zrotation
			JOINT LeftAnkle
			{
				OFFSET 0.000000 -0.404085 0.000000 
				CHANNELS 3 Zrotation Xrotation Yrotation
				End Site
				{
					OFFSET 0.204105 -0.089430 -0.008415 
				}
			}
		}
	}
}
MOTION
Frames: 31
Frame Time: 0.02
0.43803 0.69631 -0.07199 146.78625 0 -6.1403 17.95986 -7.64229 7.30617 -33.69414 -2.98003 5.12635 36.20132 16.21413 55.63409 37.70703 95.27664 29.7011 -0.77933 8.83527 14.48044 76.89414 5.8431 -157.38476 -75.2239 21.86929 48.58624 12.76165 1.86592 -11.92907 -35.67325 -4.65806 9.28951 63.38874 -1.75926 13.23193 -36.54846 -9.78874 1.62356 -2.57949
0.43826 0.69596 -0.07111 146.97875 0 -6.10035 17.66158 -7.33491 7.5749 -33.35268 -3.48669 4.38213 36.25307 16.21613 55.63446 39.10809 95.12931 30.28328 -0.75615 7.74606 15.65622 61.61069 6.17013 -141.6355 -75.23629 21.90885 49.14161 12.49338 1.57049 -13.00314 -35.03567 -4.47055 8.96674 64.03854 -1.79907 13.23199 -36.3486 -9.87445 1.49512 -3.97006
0.43854 0.6955 -0.07008 147.20117 0 -6.05476 17.31174 -6.96068 7.90374 -32.93233 -4.07224 3.46668 36.32254 16.21291 55.63387 40.80215 94.98778 31.00169 -0.73073 6.3268 17.09452 42.23005 6.65966 -121.6727 -75.23026 21.89121 49.83173 12.15496 0.84793 -14.31762 -34.37552 -4.29423 8.55435 64.74566 -1.77667 13.43856 -35.9419 -10.32304 1.30682 -5.15008
0.43879 0.69507 -0.06911 147.41712 0 -6.01521 16.98817 -6.6178 8.19486 -32.57095 -4.63433 2.62237 36.43021 16.21439 55.63411 42.38024 94.83335 31.66277 -0.71157 5.03015 18.41178 25.31064 7.17716 -104.30276 -75.2013 21.79425 50.45068 11.84811 0.33949 -15.50376 -33.7325 -4.11324 8.1869 65.42985 -1.77422 13.54649 -35.64229 -10.57993 1.15197 -6.38478
0.43906 0.6947 -0.06814 147.60205 0 -5.96042 16.65181 -6.26924 8.53171 -32.10601 -5.16231 1.78639 36.34567 16.22215 55.63559 43.88916 94.73545 32.32697 -0.66743 3.82377 19.75834 5.88098 7.28476 -84.08615 -75.30298 22.12532 51.11081 11.54308 -0.24378 -16.76909 -33.06098 -3.92804 7.80352 66.10513 -1.80711 13.67591 -35.28724 -10.93815 0.97099 -7.81378
0.43931 0.69419 -0.06714 147.86036 0 -5.93656 16.33054 -5.9179 8.78564 -31.84372 -5.75867 0.91617 36.66108 16.1954 55.63064 45.61072 94.50312 32.98933 -0.67875 2.38002 21.08059 -9.32704 8.26005 -68.76976 -75.13005 21.57195 51.71818 11.21704 -0.7756 -17.92908 -32.44017 -3.75502 7.43199 66.81063 -1.75191 13.8055 -35.00236 -11.17769 0.83048 -8.77689
0.43949 0.69334 -0.06611 148.29808 0 -5.99584 16.05877 -5.56665 8.81045 -32.11936 -6.70515 -0.20825 38.11879 16.24038 55.6388 47.85058 94.07629 33.84333 -0.80681 0.11999 22.48621 -11.54303 11.80264 -68.29456 -74.17968 18.41166 52.13819 10.85484 -1.06919 -18.71557 -32.00259 -3.6152 7.10817 67.58876 -1.46447 13.92894 -34.91612 -10.9802 0.81165 -8.54352
0.43965 0.69237 -0.06504 148.81165 0 -6.08721 15.80498 -5.21638 8.74648 -32.61003 -7.6858 -1.32502 39.97023 16.21508 55.63458 50.29744 93.49346 34.64432 -0.99633 -2.32415 23.81976 -9.42666 16.17376 -72.84526 -72.95278 14.39566 52.50211 10.47319 -1.29555 -19.39253 -31.60978 -3.48716 6.80123 68.39376 -1.09146 14.03698 -34.91584 -10.65612 0.83622 -7.83993
0.43982 0.69145 -0.06397 149.30065 0 -6.16625 15.54601 -4.87175 8.71414 -33.02885 -8.52954 -2.31088 41.61432 16.11932 55.61621 52.64186 92.84964 35.32292 -1.18353 -4.52245 25.04281 -9.5137 20.0266 -74.91378 -71.87463 10.88984 52.89734 10.09718 -1.5496 -20.1345 -31.17281 -3.35264 6.48955 69.18427 -0.76005 14.12456 -34.90529 -10.40466 0.84411 -7.32247
0.44001 0.69054 -0.06296 149.74828 0 -6.23537 15.27226 -4.50014 8.72265 -33.33393 -9.88012 -3.86341 43.38056 16.47532 55.68217 55.0148 92.71151 36.63863 -1.2678 -7.40819 26.87216 -8.76549 24.48197 -77.6729 -70.71982 6.87391 53.27252 9.73163 -1.83318 -20.81862 -30.83741 -3.22337 6.15855 69.98809 -0.41414 14.33799 -34.76503 -10.10139 0.83776 -6.90987
0.44014 0.68959 -0.06183 150.30048 0 -6.3331 15.0347 -4.18451 8.62177 -33.93019 -10.19264 -4.23996 44.98366 15.84916 55.56844 57.39511 91.5473 36.59552 -1.57449 -8.91254 27.42777 -8.65993 27.87898 -80.24039 -69.63239 3.71301 53.67463 9.34135 -2.03035 -21.59651 -30.29906 -3.08561 5.87783 70.76777 -0.08005 14.27948 -34.91931 -9.87202 0.87132 -6.1755
0.44016 0.68851 -0.06038 151.11635 0 -6.49956 14.88926 -4.03485 8.26341 -35.25994 -7.53775 -1.30064 46.04738 12.74724 54.95822 59.54971 87.01707 32.96821 -2.53671 -6.45837 24.39986 -11.49776 28.13124 -81.08481 -69.03565 3.16629 54.16147 8.88175 -2.03113 -22.63777 -29.20924 -2.92341 5.68931 71.4907 0.21005 13.50375 -35.85596 -9.86994 1.01182 -4.62002
0.44012 0.6874 -0.05882 152.036 0 -6.69403 14.78065 -3.93975 7.79521 -36.87894 -3.85337 2.80742 46.92518 8.62549 54.15936 61.73238 81.55264 27.95121 -3.70993 -2.62353 20.10775 -15.09287 27.29196 -81.57709 -68.47699 3.50176 54.67693 8.39974 -1.93929 -23.77979 -27.91009 -2.75186 5.55836 72.18466 0.48333 12.44917 -37.0888 -9.94609 1.18992 -2.76739
0.44008 0.68632 -0.0573 152.91216 0 -6.87747 14.6575 -3.81224 7.35977 -38.37786 -0.70122 6.33782 47.89163 4.81796 53.46025 64.03802 76.90744 23.46099 -4.74986 0.51478 16.44706 -18.24668 26.96524 -82.22895 -67.73939 3.40486 55.18131 7.93164 -1.87212 -24.88953 -26.69372 -2.58325 5.43044 72.88122 0.75754 11.50047 -38.19379 -9.98992 1.34628 -1.08235
0.44017 0.68516 -0.05581 153.77511 0 -7.05547 14.52514 -3.71645 6.98652 -39.83676 2.71945 10.07374 48.88168 1.60899 52.73777 65.80764 70.64611 19.3883 -5.95072 3.93426 12.54035 -21.65396 26.60055 -83.05704 -67.65449 3.41067 55.67724 7.4455 -1.88068 -25.93995 -25.53072 -2.42048 5.1832 73.62484 1.06256 10.63564 -39.27379 -10.01662 1.52376 0.75894
0.43998 0.68417 -0.05423 154.68971 0 -7.25026 14.42117 -3.56804 6.4678 -41.44426 5.82826 13.64782 49.73894 -3.05148 51.97384 68.66053 67.46139 14.14553 -6.86458 7.1032 8.85112 -24.7793 26.04154 -83.36737 -66.2479 3.42345 56.19631 6.99388 -1.70499 -27.13751 -24.20671 -2.2433 5.19366 74.26138 1.29897 9.53473 -40.47424 -10.0983 1.66561 2.33633
0.43905 0.6837 -0.05235 155.71714 0 -7.49099 14.38058 -3.25694 5.49787 -43.39464 7.80328 16.58523 50.56949 -11.77786 51.53628 74.81393 73.60579 5.76389 -6.9436 9.20076 6.03508 -26.86118 25.23896 -82.33834 -60.96662 3.24291 56.7889 6.62623 -1.08881 -28.73177 -22.48654 -2.02751 5.93888 74.62397 1.34403 7.81101 -41.94116 -10.32007 1.69975 3.13453
0.43784 0.68341 -0.05038 156.79343 0 -7.74624 14.36826 -2.89185 4.4003 -45.48173 9.43311 19.30119 51.21778 -21.86755 50.99367 81.99554 82.76966 -3.69985 -6.72472 11.00561 3.48932 -28.66507 24.27079 -80.77774 -54.39525 3.0432 57.40077 6.29746 -0.28256 -30.46818 -20.61282 -1.79779 6.93445 74.87655 1.32152 5.86763 -43.51669 -10.59361 1.69655 3.65062
0.43675 0.68303 -0.04848 157.84984 0 -7.99055 14.34692 -2.55404 3.41138 -47.50448 11.23455 22.05575 51.75198 -31.13693 50.23556 88.49921 90.15123 -12.5066 -6.63548 12.9749 0.84344 -30.67534 23.35552 -79.42906 -48.55776 2.85377 57.99335 5.96194 0.46682 -32.13041 -18.80975 -1.57495 7.79085 75.1702 1.33317 4.04931 -45.03893 -10.83925 1.71027 4.27857
0.43572 0.68266 -0.04645 158.90004 0 -8.25444 14.31097 -2.20619 2.2037 -49.55158 13.00906 25.11406 53.10338 -41.30802 50.5666 95.89715 99.2185 -22.06336 -6.57675 14.86644 -1.94495 -32.38907 22.49158 -78.18427 -42.09957 2.68574 58.63201 5.57913 1.09651 -33.83725 -16.99173 -1.349 8.75639 75.50204 1.32881 2.11079 -46.59139 -11.10624 1.72543 4.98514
0.43447 0.68232 -0.04467 159.9735 0 -8.48029 14.31136 -1.86617 1.42414 -51.57062 14.74504 27.47055 52.7217 -49.88814 48.62624 101.6715 105.52011 -30.29189 -6.38236 16.82388 -4.35274 -34.6229 21.50242 -76.61613 -36.62583 2.45999 59.17805 5.30485 2.01736 -35.48275 -15.17616 -1.12692 9.55345 75.7267 1.34306 0.37903 -48.09877 -11.33975 1.72837 5.45835
0.4327 0.68206 -0.04356 161.09796 0 -8.60022 14.40795 -1.55681 1.84573 -53.52812 16.44551 27.94827 47.5177 -53.93421 40.27804 102.74971 103.31181 -34.6199 -5.87323 19.10229 -5.79479 -38.55416 20.15233 -74.1472 -34.20239 2.05262 59.4709 5.31618 3.71099 -36.93196 -13.36356 -0.91428 9.82187 75.69786 1.4157 -0.76856 -49.48699 -11.46966 1.70522 5.34282
0.4307 0.68183 -0.0427 162.24384 0 -8.6807 14.53944 -1.25767 2.70424 -55.44167 18.1151 27.72051 40.59562 -56.2908 29.68444 102.15122 98.24676 -37.55919 -5.23923 21.43794 -6.85266 -42.97901 18.69756 -71.39776 -32.81251 1.58856 59.66854 5.43608 5.68613 -38.31303 -11.56819 -0.70705 9.91182 75.56191 1.51118 -1.69136 -50.81769 -11.56279 1.67118 5.00342
0.42879 0.68159 -0.04173 163.38024 0 -8.77735 14.653 -0.95634 3.37279 -57.34183 19.80422 27.80656 34.50963 -59.28956 20.21831 102.29462 94.58108 -41.10852 -4.66984 23.69581 -8.06816 -47.04781 17.33283 -68.869 -30.93671 1.16365 59.90461 5.50972 7.52395 -39.71901 -9.79228 -0.50028 10.0851 75.46528 1.60263 -2.68932 -52.15349 -11.67222 1.64282 4.77338
0.42693 0.68136 -0.04075 164.51742 0 -8.88202 14.77636 -0.64288 4.00536 -59.38897 21.4643 27.91435 28.16855 -62.86761 10.27278 102.55815 90.58922 -44.79253 -4.05691 26.16152 -9.34881 -51.66355 15.78299 -65.92981 -29.07821 0.68184 60.16104 5.57283 9.41476 -41.15362 -7.89287 -0.28021 10.25935 75.40545 1.6652 -3.80983 -53.58599 -11.78791 1.6099 4.50035
0.42491 0.68109 -0.03985 165.65735 0 -8.96036 14.88716 -0.35769 4.81222 -61.11625 23.17494 27.81205 21.97221 -64.8191 0.82372 102.16067 86.56427 -47.8431 -3.50899 28.2133 -10.40321 -55.26079 14.59535 -63.78365 -27.45363 0.30555 60.35312 5.68175 11.25119 -42.51301 -6.26032 -0.08992 10.38396 75.24353 1.79384 -4.61791 -54.79711 -11.87779 1.5846 4.26878
0.42251 0.68068 -0.03915 166.79866 0 -8.97607 14.9548 -0.14912 6.04587 -61.98141 25.09129 27.30181 16.43429 -62.69167 -6.95746 100.33492 83.0939 -49.55422 -3.17197 29.09231 -10.94983 -55.91558 14.44327 -63.92042 -26.16289 0.23081 60.38315 5.90298 12.93761 -43.65844 -5.33288 0.02425 10.42787 74.83888 2.10362 -4.62391 -55.45109 -11.93424 1.58148 4.1947
0.41996 0.68023 -0.03851 167.94116 0 -8.96649 15.00824 0.03139 7.43017 -62.5231 27.04944 26.60606 11.13285 -58.9803 -14.11248 97.8989 79.68728 -50.65905 -2.90649 29.55716 -11.27963 -55.52518 14.65855 -64.86468 -25.08933 0.26512 60.35329 6.16438 14.54458 -44.7333 -4.68015 0.10736 10.4224 74.33354 2.47901 -4.32099 -55.87619 -11.96065 1.58694 4.17351
0.41748 0.6798 -0.03784 169.08451 0 -8.96811 15.06826 0.22509 8.71251 -63.20584 28.95276 25.99588 5.82952 -55.98571 -21.38979 95.74603 76.26647 -51.98749 -2.60857 30.22313 -11.69393 -55.62859 14.7001 -65.42391 -23.96189 0.25166 60.35538 6.39867 16.14315 -45.85577 -3.9195 0.20193 10.4324 73.86606 2.82143 -4.15476 -56.37921 -11.98122 1.58957 4.13743
0.415 0.67935 -0.03722 170.22597 0 -8.96958 15.12982 0.41624 10.15368 -63.91392 31.0095 25.35356 0.01865 -52.93973 -29.43613 93.51164 72.67053 -53.4794 -2.30383 30.83598 -12.15104 -55.69507 14.76615 -66.04277 -22.68102 0.22779 60.33303 6.67284 17.94429 -46.91356 -3.0846 0.30887 10.47374 73.4272 3.17641 -3.99674 -56.99046 -12.08152 1.58702 4.05538
0.41248 0.67893 -0.03649 171.36733 0 -8.9659 15.1833 0.60666 11.29132 -64.49089 32.75275 24.74592 -4.65436 -49.65428 -35.69579 91.3228 69.5101 -54.51483 -2.03445 31.461 -12.47618 -55.55191 14.87026 -66.74103 -21.75729 0.25335 60.35006 6.87374 19.29505 -48.08617 -2.4735 0.38103 10.43037 72.90742 3.52238 -3.75081 -57.32268 -12.01074 1.59775 4.08382
